{"glyphs":{":":{"x_min":0,"x_max":337,"ha":337,"o":"m 104 51 q 104 78 123 97 q 142 116 169 116 q 196 116 215 97 q 234 78 234 51 q 234 23 215 5 q 197 -14 169 -14 q 141 -14 123 5 q 104 23 104 51 z m 104 369 q 104 396 123 415 q 142 434 169 434 q 197 434 215 416 q 234 397 234 369 q 234 341 215 323 q 197 304 169 304 q 142 304 123 323 q 104 342 104 369 z"},"$":{"x_min":0,"x_max":636,"ha":636,"o":"m 337 33 q 392 38 421 65 q 450 92 450 138 q 450 180 421 209 q 393 239 337 254 z m 288 580 q 238 576 210 551 q 182 525 182 482 q 182 443 208 417 q 233 391 288 375 z m 86 35 l 86 170 l 139 170 q 141 103 178 69 q 215 35 288 33 l 288 270 q 176 301 130 342 q 85 383 85 450 q 85 528 139 576 q 192 623 288 629 l 288 760 l 337 760 l 337 629 q 386 625 432 613 q 478 601 521 581 l 521 453 l 468 453 q 462 510 428 542 q 395 575 337 580 l 337 359 q 457 326 505 284 q 553 242 553 171 q 553 90 497 41 q 440 -8 337 -15 l 337 -147 l 288 -147 l 288 -15 q 241 -14 191 -2 q 141 11 86 35 z"},"?":{"x_min":0,"x_max":536,"ha":536,"o":"m 176 51 q 176 78 195 97 q 213 116 241 116 q 268 116 287 97 q 306 78 306 51 q 306 24 287 5 q 268 -14 241 -14 q 213 -14 195 5 q 176 23 176 51 z m 68 697 q 120 720 166 731 q 213 742 254 742 q 362 742 425 690 q 488 638 488 549 q 488 458 434 400 q 380 343 271 318 l 271 194 l 211 194 l 211 354 q 297 375 341 424 q 385 474 385 550 q 385 617 349 655 q 313 694 252 694 q 196 694 161 662 q 125 630 115 570 l 68 570 z"},"<":{"x_min":0,"x_max":838,"ha":838,"o":"m 732 498 l 225 313 l 732 129 l 732 46 l 106 273 l 106 354 l 732 581 z"},"'":{"x_min":0,"x_max":275,"ha":275,"o":"m 176 729 l 176 458 l 98 458 l 98 729 z"},"=":{"x_min":0,"x_max":838,"ha":838,"o":"m 106 452 l 732 452 l 732 374 l 106 374 z m 106 253 l 732 253 l 732 175 l 106 175 z"},"a":{"x_min":0,"x_max":596,"ha":596,"o":"m 398 163 l 398 273 l 282 273 q 215 273 183 244 q 150 215 150 156 q 150 102 183 70 q 216 38 273 38 q 329 38 364 73 q 398 107 398 163 z m 488 324 l 488 52 l 568 52 l 568 0 l 398 0 l 398 56 q 368 20 329 3 q 290 -14 238 -14 q 151 -14 101 32 q 50 78 50 156 q 50 236 108 281 q 166 325 272 325 l 398 325 l 398 361 q 398 420 362 452 q 326 485 261 485 q 208 485 176 460 q 144 436 136 388 l 90 388 l 90 493 q 137 513 181 523 q 225 533 267 533 q 375 533 431 480 q 488 426 488 324 z"},"L":{"x_min":0,"x_max":664,"ha":664,"o":"m 55 0 l 55 52 l 148 52 l 148 677 l 55 677 l 55 729 l 340 729 l 340 677 l 247 677 l 247 60 l 580 60 l 580 182 l 640 182 l 640 0 z"},"3":{"x_min":0,"x_max":636,"ha":636,"o":"m 97 698 q 154 720 207 731 q 259 742 305 742 q 412 742 472 696 q 532 650 532 568 q 532 502 491 458 q 449 414 373 398 q 463 385 512 333 q 562 280 562 197 q 562 95 493 40 q 425 -14 296 -14 q 239 -14 184 -2 q 130 10 76 35 l 76 177 l 131 177 q 136 106 178 70 q 221 34 298 34 q 373 34 416 77 q 459 121 459 196 q 459 282 415 326 q 370 370 284 370 l 238 370 l 238 420 l 262 420 q 348 420 390 455 q 433 491 433 562 q 433 626 398 660 q 363 694 297 694 q 231 694 195 663 q 158 631 152 570 l 97 570 z"},";":{"x_min":0,"x_max":337,"ha":337,"o":"m 36 -97 q 82 -63 104 -18 q 125 28 125 93 l 125 111 l 221 111 q 217 27 182 -32 q 146 -92 75 -136 z m 106 369 q 106 396 125 415 q 144 434 171 434 q 198 434 217 415 q 236 396 236 369 q 236 342 217 323 q 198 304 171 304 q 144 304 125 323 q 106 342 106 369 z"},"J":{"x_min":0,"x_max":401,"ha":401,"o":"m -84 -175 l -84 -60 l -28 -60 q -27 -108 -5 -132 q 16 -156 59 -156 q 117 -156 140 -119 q 163 -83 163 24 l 163 677 l 50 677 l 50 729 l 355 729 l 355 677 l 262 677 l 262 20 q 262 -101 214 -154 q 166 -208 58 -208 q 23 -208 -12 -200 q -48 -191 -84 -175 z"},"V":{"x_min":0,"x_max":722,"ha":722,"o":"m 175 677 l 390 117 l 605 677 l 523 677 l 523 729 l 737 729 l 737 677 l 666 677 l 406 0 l 322 0 l 63 677 l -10 677 l -10 729 l 256 729 l 256 677 z"},"\"":{"x_min":0,"x_max":460,"ha":460,"o":"m 176 729 l 176 458 l 98 458 l 98 729 z m 362 729 l 362 458 l 284 458 l 284 729 z"},"7":{"x_min":0,"x_max":636,"ha":636,"o":"m 564 679 l 279 0 l 206 0 l 478 649 l 141 649 l 141 559 l 84 559 l 84 729 l 564 729 z"},"S":{"x_min":0,"x_max":685,"ha":685,"o":"m 93 35 l 93 201 l 149 201 q 151 118 197 78 q 243 38 336 38 q 423 38 469 73 q 514 107 514 173 q 514 226 487 254 q 459 282 370 309 l 274 338 q 169 370 127 417 q 84 464 84 547 q 84 640 150 691 q 216 742 335 742 q 386 742 446 731 q 507 720 575 699 l 575 544 l 520 544 q 512 621 469 656 q 425 690 337 690 q 260 690 219 658 q 179 627 179 567 q 179 515 209 485 q 240 455 338 426 l 428 399 q 527 369 570 323 q 612 277 612 199 q 612 93 544 40 q 476 -14 342 -14 q 282 -14 219 -2 q 157 10 93 35 z"},"}":{"x_min":0,"x_max":636,"ha":636,"o":"m 125 -112 l 159 -112 q 228 -112 248 -91 q 269 -69 269 0 l 269 140 q 269 217 293 250 q 317 282 381 299 q 317 313 293 347 q 269 380 269 457 l 269 597 q 269 667 248 688 q 228 709 159 709 l 125 709 l 125 760 l 156 760 q 277 760 318 724 q 359 688 359 580 l 359 454 q 359 381 385 353 q 412 324 481 324 l 511 324 l 511 273 l 481 273 q 412 273 385 245 q 359 216 359 143 l 359 17 q 359 -91 318 -127 q 277 -163 156 -163 l 125 -163 z"},"Z":{"x_min":0,"x_max":695,"ha":695,"o":"m 45 0 l 45 35 l 499 669 l 122 669 l 122 560 l 62 560 l 62 729 l 638 729 l 638 694 l 184 60 l 596 60 l 596 162 l 656 162 l 656 0 z"},"x":{"x_min":0,"x_max":564,"ha":564,"o":"m 291 317 l 400 467 l 330 467 l 330 519 l 530 519 l 530 467 l 461 467 l 322 275 l 484 52 l 552 52 l 552 0 l 312 0 l 312 52 l 378 52 l 265 207 l 152 52 l 219 52 l 219 0 l 22 0 l 22 52 l 91 52 l 234 249 l 76 467 l 12 467 l 12 519 l 244 519 l 244 467 l 182 467 z"},")":{"x_min":0,"x_max":390,"ha":390,"o":"m 71 -156 l 71 -108 q 146 -56 179 38 q 212 132 212 302 q 212 472 179 566 q 146 660 71 712 l 71 760 q 190 707 250 591 q 311 476 311 302 q 311 128 250 13 q 190 -103 71 -156 z"},"&":{"x_min":0,"x_max":890,"ha":890,"o":"m 540 113 l 256 412 q 213 374 192 330 q 171 286 171 236 q 171 155 227 100 q 283 45 367 45 q 417 45 461 62 q 505 80 540 113 z m 843 0 l 647 0 l 580 71 q 529 28 471 7 q 413 -14 345 -14 q 219 -14 146 50 q 72 115 72 225 q 72 290 109 346 q 146 403 222 452 q 197 482 186 511 q 174 541 174 573 q 174 651 230 697 q 286 742 382 742 q 415 742 458 734 q 502 726 558 709 l 558 583 l 503 583 q 496 635 465 663 q 434 690 380 690 q 330 690 298 662 q 267 635 267 591 q 267 561 284 531 q 300 502 353 447 l 605 181 q 639 220 658 265 q 677 311 682 362 l 594 362 l 594 414 l 825 414 l 825 362 l 741 362 q 733 298 709 243 q 685 188 644 141 l 728 52 l 843 52 z"},"_":{"x_min":0,"x_max":500,"ha":500,"o":"m 500 -197 l 500 -236 l 0 -236 l 0 -197 z"},"v":{"x_min":0,"x_max":565,"ha":565,"o":"m 247 0 l 56 467 l -3 467 l -3 519 l 236 519 l 236 467 l 153 467 l 299 110 l 445 467 l 367 467 l 367 519 l 562 519 l 562 467 l 504 467 l 313 0 z"},"O":{"x_min":0,"x_max":820,"ha":820,"o":"m 410 38 q 530 38 591 120 q 652 203 652 364 q 652 525 591 608 q 530 690 410 690 q 290 690 229 608 q 168 525 168 364 q 168 203 229 120 q 290 38 410 38 z m 410 -14 q 336 -14 274 10 q 211 35 164 82 q 109 137 83 206 q 56 275 56 364 q 56 452 83 522 q 109 591 164 646 q 212 694 273 718 q 335 742 410 742 q 569 742 667 638 q 764 534 764 364 q 764 276 737 206 q 710 136 656 82 q 608 34 546 10 q 485 -14 410 -14 z"},"(":{"x_min":0,"x_max":390,"ha":390,"o":"m 319 -156 q 200 -103 140 13 q 79 128 79 302 q 79 476 140 591 q 200 707 319 760 l 319 712 q 244 660 211 566 q 178 472 178 302 q 178 132 211 38 q 244 -56 319 -108 z"},"C":{"x_min":0,"x_max":765,"ha":765,"o":"m 705 193 q 673 91 597 38 q 521 -14 405 -14 q 333 -14 272 10 q 211 35 164 82 q 109 137 83 206 q 56 276 56 364 q 56 534 154 638 q 252 742 413 742 q 473 742 540 727 q 607 711 685 679 l 685 511 l 630 511 q 612 603 557 646 q 503 690 405 690 q 288 690 228 607 q 168 524 168 364 q 168 204 228 121 q 288 38 405 38 q 486 38 539 77 q 592 116 615 193 z"},"W":{"x_min":0,"x_max":1028,"ha":1028,"o":"m 762 0 l 682 0 l 515 593 l 348 0 l 268 0 l 77 677 l 5 677 l 5 729 l 271 729 l 271 677 l 180 677 l 332 138 l 498 729 l 577 729 l 746 132 l 899 677 l 815 677 l 815 729 l 1025 729 l 1025 677 l 953 677 z"},"A":{"x_min":0,"x_max":722,"ha":722,"o":"m 200 264 l 468 264 l 334 611 z m -6 0 l -6 52 l 58 52 l 318 729 l 400 729 l 660 52 l 732 52 l 732 0 l 467 0 l 467 52 l 548 52 l 487 212 l 180 212 l 119 52 l 199 52 l 199 0 z"},"f":{"x_min":0,"x_max":370,"ha":370,"o":"m 430 637 l 383 637 q 382 674 362 693 q 342 712 303 712 q 253 712 232 684 q 212 657 212 586 l 212 519 l 357 519 l 357 467 l 212 467 l 212 52 l 327 52 l 327 0 l 36 0 l 36 52 l 122 52 l 122 467 l 36 467 l 36 519 l 122 519 l 122 584 q 122 671 167 715 q 212 760 300 760 q 333 760 365 754 q 398 748 430 736 z"},"Q":{"x_min":0,"x_max":820,"ha":820,"o":"m 422 -14 q 254 -14 155 89 q 56 191 56 364 q 56 452 83 522 q 109 591 164 646 q 212 694 273 718 q 335 742 410 742 q 569 742 667 638 q 764 534 764 364 q 764 219 691 121 q 618 22 489 -6 q 515 -39 553 -54 q 591 -70 644 -70 l 659 -70 l 659 -160 q 577 -156 518 -120 q 459 -83 422 -14 z m 410 38 q 530 38 591 120 q 652 203 652 364 q 652 525 591 608 q 530 690 410 690 q 290 690 229 608 q 168 525 168 364 q 168 203 229 120 q 290 38 410 38 z"},"w":{"x_min":0,"x_max":856,"ha":856,"o":"m 480 519 l 613 114 l 730 467 l 655 467 l 655 519 l 843 519 l 843 467 l 785 467 l 631 0 l 556 0 l 428 388 l 300 0 l 228 0 l 74 467 l 16 467 l 16 519 l 251 519 l 251 467 l 167 467 l 283 114 l 417 519 z"},"-":{"x_min":0,"x_max":338,"ha":338,"o":"m 44 306 l 294 306 l 294 230 l 44 230 z"},"E":{"x_min":0,"x_max":730,"ha":730,"o":"m 55 0 l 55 52 l 148 52 l 148 677 l 55 677 l 55 729 l 642 729 l 642 567 l 582 567 l 582 669 l 247 669 l 247 425 l 486 425 l 486 516 l 546 516 l 546 274 l 486 274 l 486 365 l 247 365 l 247 60 l 590 60 l 590 162 l 650 162 l 650 0 z"},"s":{"x_min":0,"x_max":513,"ha":513,"o":"m 56 29 l 56 150 l 108 150 q 110 92 144 63 q 179 34 246 34 q 307 34 338 57 q 370 80 370 123 q 370 157 347 178 q 324 199 249 223 l 184 245 q 117 267 87 299 q 57 331 57 381 q 57 452 109 493 q 162 533 254 533 q 295 533 340 522 q 386 512 434 491 l 434 378 l 382 378 q 380 428 347 457 q 314 485 257 485 q 200 485 171 465 q 142 445 142 405 q 142 372 164 352 q 186 333 252 312 l 323 290 q 397 267 429 233 q 462 198 462 144 q 462 70 406 28 q 349 -14 250 -14 q 200 -14 152 -3 q 104 7 56 29 z"},">":{"x_min":0,"x_max":838,"ha":838,"o":"m 106 498 l 106 581 l 732 354 l 732 273 l 106 46 l 106 129 l 613 313 z"},"l":{"x_min":0,"x_max":320,"ha":320,"o":"m 205 52 l 290 52 l 290 0 l 29 0 l 29 52 l 115 52 l 115 708 l 29 708 l 29 760 l 205 760 z"},"8":{"x_min":0,"x_max":636,"ha":636,"o":"m 466 199 q 466 277 427 321 q 388 364 318 364 q 248 364 209 321 q 170 277 170 199 q 170 121 209 77 q 248 34 318 34 q 388 34 427 77 q 466 121 466 199 z m 446 553 q 446 620 412 657 q 378 694 318 694 q 258 694 224 657 q 190 620 190 553 q 190 486 224 449 q 258 412 318 412 q 378 412 412 449 q 446 486 446 553 z m 393 388 q 476 377 522 327 q 569 277 569 199 q 569 97 504 41 q 439 -14 318 -14 q 197 -14 132 41 q 67 97 67 199 q 67 277 113 327 q 160 377 243 388 q 169 401 130 444 q 91 487 91 553 q 91 641 151 692 q 212 742 318 742 q 424 742 484 692 q 545 641 545 553 q 545 487 506 444 q 466 401 393 388 z"},"\\":{"x_min":0,"x_max":337,"ha":337,"o":"m 78 729 l 337 -93 l 259 -93 l 0 729 z"},"e":{"x_min":0,"x_max":592,"ha":592,"o":"m 542 250 l 155 250 l 155 246 q 155 141 194 88 q 234 34 311 34 q 370 34 408 65 q 446 96 461 157 l 533 157 q 512 72 454 29 q 396 -14 302 -14 q 188 -14 119 61 q 50 136 50 260 q 50 383 118 458 q 186 533 296 533 q 414 533 477 461 q 540 388 542 250 z m 436 302 q 433 393 398 439 q 362 485 296 485 q 234 485 198 438 q 163 392 155 302 z"},"b":{"x_min":0,"x_max":640,"ha":640,"o":"m 115 52 l 115 708 l 29 708 l 29 760 l 205 760 l 205 438 q 231 487 272 510 q 313 533 373 533 q 469 533 529 458 q 590 382 590 260 q 590 138 529 62 q 469 -14 373 -14 q 313 -14 272 9 q 231 32 205 81 l 205 0 l 29 0 l 29 52 z m 205 234 q 205 140 241 91 q 277 42 345 42 q 414 42 449 97 q 485 152 485 260 q 485 368 449 422 q 414 477 345 477 q 277 477 241 428 q 205 378 205 285 z"},"%":{"x_min":0,"x_max":950,"ha":950,"o":"m 224 697 q 181 697 157 656 q 133 616 133 543 q 133 471 157 430 q 182 389 224 389 q 266 389 290 430 q 314 471 314 543 q 314 615 290 656 q 266 697 224 697 z m 727 339 q 685 339 660 298 q 636 257 636 184 q 636 112 661 72 q 685 31 727 31 q 769 31 793 72 q 817 112 817 184 q 817 256 793 298 q 769 339 727 339 z m 727 383 q 804 383 850 329 q 895 275 895 184 q 895 93 849 39 q 804 -14 727 -14 q 649 -14 604 39 q 558 93 558 184 q 558 276 604 329 q 649 383 727 383 z m 666 742 l 740 742 l 284 -14 l 210 -14 z m 223 742 q 300 742 346 689 q 392 635 392 544 q 392 452 346 398 q 301 345 223 345 q 146 345 100 399 q 55 452 55 544 q 55 635 101 688 q 146 742 223 742 z"},"m":{"x_min":0,"x_max":948,"ha":948,"o":"m 518 418 q 544 475 584 504 q 625 533 678 533 q 760 533 800 483 q 840 432 840 330 l 840 52 l 921 52 l 921 0 l 672 0 l 672 52 l 750 52 l 750 320 q 750 399 727 433 q 703 467 649 467 q 589 467 557 421 q 526 376 526 289 l 526 52 l 604 52 l 604 0 l 358 0 l 358 52 l 436 52 l 436 323 q 436 401 413 434 q 389 467 335 467 q 275 467 243 421 q 212 376 212 289 l 212 52 l 290 52 l 290 0 l 41 0 l 41 52 l 122 52 l 122 468 l 36 468 l 36 519 l 212 519 l 212 427 q 237 479 275 506 q 314 533 363 533 q 423 533 464 503 q 504 473 518 418 z"},"#":{"x_min":0,"x_max":838,"ha":838,"o":"m 509 440 l 371 440 l 330 277 l 469 277 z m 440 718 l 390 515 l 528 515 l 578 718 l 662 718 l 611 515 l 761 515 l 761 440 l 592 440 l 552 277 l 705 277 l 705 202 l 533 202 l 483 0 l 399 0 l 450 202 l 312 202 l 261 0 l 178 0 l 228 202 l 77 202 l 77 277 l 247 277 l 287 440 l 133 440 l 133 515 l 306 515 l 357 718 z"},",":{"x_min":0,"x_max":318,"ha":318,"o":"m 36 -97 q 82 -63 104 -18 q 125 28 125 93 l 125 111 l 221 111 q 217 27 182 -32 q 146 -92 75 -136 z"},"n":{"x_min":0,"x_max":644,"ha":644,"o":"m 41 0 l 41 52 l 122 52 l 122 467 l 36 467 l 36 519 l 212 519 l 212 427 q 237 479 277 506 q 316 533 369 533 q 455 533 496 484 q 536 435 536 330 l 536 52 l 616 52 l 616 0 l 368 0 l 368 52 l 446 52 l 446 302 q 446 397 422 432 q 399 468 340 468 q 277 468 245 422 q 212 376 212 289 l 212 52 l 290 52 l 290 0 z"},"h":{"x_min":0,"x_max":644,"ha":644,"o":"m 41 0 l 41 52 l 122 52 l 122 708 l 36 708 l 36 760 l 212 760 l 212 427 q 237 479 277 506 q 316 533 369 533 q 455 533 496 484 q 536 435 536 330 l 536 52 l 616 52 l 616 0 l 368 0 l 368 52 l 446 52 l 446 302 q 446 397 423 432 q 399 467 340 467 q 277 467 245 421 q 212 376 212 289 l 212 52 l 290 52 l 290 0 z"},"z":{"x_min":0,"x_max":527,"ha":527,"o":"m 40 0 l 40 42 l 365 467 l 108 467 l 108 377 l 56 377 l 56 519 l 481 519 l 481 477 l 156 52 l 438 52 l 438 146 l 490 146 l 490 0 z"},"B":{"x_min":0,"x_max":735,"ha":735,"o":"m 247 52 l 393 52 q 481 52 521 90 q 562 128 562 211 q 562 293 522 331 q 481 369 393 369 l 247 369 z m 247 421 l 371 421 q 451 421 488 452 q 525 482 525 549 q 525 616 488 646 q 451 677 371 677 l 247 677 z m 55 0 l 55 52 l 148 52 l 148 677 l 55 677 l 55 729 l 415 729 q 525 729 581 684 q 637 639 637 549 q 637 484 598 445 q 560 407 485 398 q 578 386 626 339 q 674 291 674 211 q 674 103 605 51 q 537 0 392 0 z"},"K":{"x_min":0,"x_max":747,"ha":747,"o":"m 55 0 l 55 52 l 148 52 l 148 677 l 55 677 l 55 729 l 340 729 l 340 677 l 247 677 l 247 401 l 561 677 l 482 677 l 482 729 l 724 729 l 724 677 l 642 677 l 329 402 l 679 52 l 762 52 l 762 0 l 593 0 l 247 346 l 247 52 l 340 52 l 340 0 z"},"R":{"x_min":0,"x_max":753,"ha":753,"o":"m 479 362 q 513 353 538 330 q 562 308 582 268 l 688 52 l 777 52 l 777 0 l 605 0 l 491 232 q 458 299 431 319 q 404 339 356 339 l 247 339 l 247 52 l 350 52 l 350 0 l 55 0 l 55 52 l 148 52 l 148 677 l 55 677 l 55 729 l 425 729 q 531 729 589 678 q 647 627 647 534 q 647 459 605 416 q 562 373 479 362 z m 247 391 l 391 391 q 465 391 500 426 q 535 461 535 534 q 535 607 500 642 q 465 677 391 677 l 247 677 z"},"T":{"x_min":0,"x_max":667,"ha":667,"o":"m 191 0 l 191 52 l 284 52 l 284 671 l 70 671 l 70 557 l 10 557 l 10 729 l 657 729 l 657 557 l 597 557 l 597 671 l 383 671 l 383 52 l 476 52 l 476 0 z"},"P":{"x_min":0,"x_max":673,"ha":673,"o":"m 247 371 l 376 371 q 449 371 487 410 q 525 450 525 524 q 525 599 487 638 q 449 677 376 677 l 247 677 z m 55 0 l 55 52 l 148 52 l 148 677 l 55 677 l 55 729 l 400 729 q 509 729 573 674 q 637 618 637 524 q 637 430 573 375 q 509 319 400 319 l 247 319 l 247 52 l 360 52 l 360 0 z"},"|":{"x_min":0,"x_max":337,"ha":337,"o":"m 208 764 l 208 -236 l 129 -236 l 129 764 z"},"t":{"x_min":0,"x_max":402,"ha":402,"o":"m 108 467 l 29 467 l 29 519 l 108 519 l 108 680 l 198 680 l 198 519 l 367 519 l 367 467 l 198 467 l 198 137 q 198 71 211 53 q 224 34 258 34 q 293 34 309 55 q 325 76 326 122 l 394 122 q 390 51 355 19 q 321 -14 250 -14 q 172 -14 140 20 q 108 55 108 137 z"},"M":{"x_min":0,"x_max":1024,"ha":1024,"o":"m 55 0 l 55 52 l 148 52 l 148 677 l 50 677 l 50 729 l 262 729 l 518 210 l 774 729 l 973 729 l 973 677 l 876 677 l 876 52 l 969 52 l 969 0 l 684 0 l 684 52 l 777 52 l 777 615 l 527 107 l 458 107 l 208 615 l 208 52 l 301 52 l 301 0 z"},"g":{"x_min":0,"x_max":640,"ha":640,"o":"m 525 467 l 525 11 q 525 -101 463 -161 q 402 -222 288 -222 q 237 -222 190 -213 q 143 -204 100 -185 l 100 -76 l 147 -76 q 156 -127 188 -150 q 221 -174 282 -174 q 361 -174 398 -129 q 435 -84 435 11 l 435 81 q 409 32 368 9 q 327 -14 267 -14 q 171 -14 111 62 q 50 138 50 260 q 50 382 110 458 q 171 533 267 533 q 327 533 368 510 q 409 487 435 438 l 435 519 l 611 519 l 611 467 z m 435 285 q 435 378 399 428 q 363 477 295 477 q 226 477 190 422 q 155 368 155 260 q 155 152 190 97 q 226 42 295 42 q 363 42 399 91 q 435 140 435 234 z"},"j":{"x_min":0,"x_max":310,"ha":310,"o":"m 100 680 q 100 703 116 719 q 133 736 156 736 q 178 736 195 719 q 211 703 211 680 q 211 657 195 641 q 179 625 156 625 q 133 625 116 641 q 100 657 100 680 z m 122 467 l 37 467 l 37 519 l 212 519 l 212 -51 q 212 -131 164 -177 q 117 -222 33 -222 q -2 -222 -34 -214 q -66 -206 -96 -190 l -96 -83 l -50 -83 q -46 -130 -26 -152 q -5 -174 35 -174 q 80 -174 101 -144 q 122 -114 122 -51 z"},"i":{"x_min":0,"x_max":320,"ha":320,"o":"m 97 680 q 97 703 114 719 q 130 736 153 736 q 175 736 192 719 q 208 703 208 680 q 208 657 192 641 q 176 625 153 625 q 130 625 114 641 q 97 657 97 680 z m 212 52 l 297 52 l 297 0 l 36 0 l 36 52 l 122 52 l 122 467 l 36 467 l 36 519 l 212 519 z"},"y":{"x_min":0,"x_max":565,"ha":565,"o":"m 216 -95 l 250 -9 l 56 467 l -3 467 l -3 519 l 236 519 l 236 467 l 153 467 l 299 110 l 445 467 l 367 467 l 367 519 l 562 519 l 562 467 l 504 467 l 266 -117 q 242 -178 212 -200 q 182 -222 128 -222 q 105 -222 81 -218 q 57 -214 32 -207 l 32 -108 l 78 -108 q 81 -141 95 -156 q 109 -170 138 -170 q 165 -170 181 -155 q 198 -140 216 -95 z"},"@":{"x_min":0,"x_max":1000,"ha":1000,"o":"m 632 121 q 603 81 567 62 q 531 42 486 42 q 400 42 347 103 q 294 164 294 262 q 294 360 347 421 q 400 482 486 482 q 531 482 567 462 q 603 443 632 403 l 632 472 l 708 472 l 708 95 q 791 113 837 174 q 883 235 883 327 q 883 381 866 430 q 850 478 817 519 q 765 584 691 618 q 616 653 529 653 q 485 653 442 644 q 399 634 357 615 q 258 570 204 478 q 149 386 149 265 q 149 184 173 115 q 198 46 244 -4 q 297 -62 370 -93 q 443 -123 528 -123 q 591 -123 646 -104 q 700 -86 747 -49 l 773 -83 q 720 -128 653 -151 q 586 -174 507 -174 q 417 -174 336 -141 q 255 -109 194 -49 q 131 13 98 93 q 66 173 66 265 q 66 355 99 435 q 131 514 194 576 q 256 638 340 671 q 424 704 519 704 q 624 704 710 664 q 796 623 854 547 q 891 499 910 443 q 929 387 929 326 q 929 195 850 119 q 770 43 632 42 z m 632 237 l 632 288 q 632 349 597 387 q 562 425 506 425 q 447 425 414 382 q 381 339 381 262 q 381 185 414 142 q 447 99 507 99 q 562 99 597 137 q 632 176 632 237 z"},".":{"x_min":0,"x_max":318,"ha":318,"o":"m 94 51 q 94 78 113 97 q 131 116 159 116 q 186 116 205 97 q 224 78 224 51 q 224 24 205 5 q 186 -14 159 -14 q 131 -14 113 5 q 94 23 94 51 z"},"p":{"x_min":0,"x_max":640,"ha":640,"o":"m 205 285 l 205 234 q 205 140 241 91 q 277 42 345 42 q 414 42 449 97 q 485 152 485 260 q 485 368 449 422 q 414 477 345 477 q 277 477 241 428 q 205 378 205 285 z m 115 467 l 29 467 l 29 519 l 205 519 l 205 438 q 231 487 272 510 q 313 533 373 533 q 469 533 529 458 q 590 382 590 260 q 590 138 529 62 q 469 -14 373 -14 q 313 -14 272 9 q 231 32 205 81 l 205 -156 l 290 -156 l 290 -208 l 29 -208 l 29 -156 l 115 -156 z"},"X":{"x_min":0,"x_max":712,"ha":712,"o":"m 331 312 l 153 52 l 247 52 l 247 0 l 6 0 l 6 52 l 90 52 l 300 358 l 87 677 l 9 677 l 9 729 l 298 729 l 298 677 l 212 677 l 368 442 l 529 677 l 435 677 l 435 729 l 674 729 l 674 677 l 592 677 l 399 396 l 629 52 l 707 52 l 707 0 l 418 0 l 418 52 l 505 52 z"},"*":{"x_min":0,"x_max":500,"ha":500,"o":"m 484 604 l 293 515 l 484 425 l 447 367 l 277 473 l 283 287 l 217 287 l 223 473 l 53 367 l 16 425 l 207 514 l 16 604 l 53 662 l 223 556 l 217 742 l 283 742 l 277 556 l 447 662 z"},"Y":{"x_min":0,"x_max":660,"ha":660,"o":"m 189 0 l 189 52 l 282 52 l 282 314 l 57 677 l -11 677 l -11 729 l 260 729 l 260 677 l 175 677 l 357 382 l 539 677 l 457 677 l 457 729 l 669 729 l 669 677 l 600 677 l 381 323 l 381 52 l 474 52 l 474 0 z"},"c":{"x_min":0,"x_max":560,"ha":560,"o":"m 514 156 q 495 73 441 29 q 387 -14 301 -14 q 188 -14 119 61 q 50 136 50 260 q 50 384 119 459 q 188 533 301 533 q 350 533 399 522 q 448 510 497 487 l 497 354 l 445 354 q 435 422 400 454 q 366 485 302 485 q 229 485 192 428 q 155 372 155 260 q 155 147 192 91 q 229 34 302 34 q 360 34 395 64 q 429 95 442 156 z"},"!":{"x_min":0,"x_max":402,"ha":402,"o":"m 136 51 q 136 78 155 97 q 173 116 201 116 q 228 116 247 97 q 266 78 266 51 q 266 24 247 5 q 228 -14 201 -14 q 173 -14 155 5 q 136 23 136 51 z m 138 729 l 264 729 l 231 328 l 231 205 l 171 205 l 171 328 z"},"/":{"x_min":0,"x_max":337,"ha":337,"o":"m 259 729 l 337 729 l 78 -93 l 0 -93 z"},"[":{"x_min":0,"x_max":390,"ha":390,"o":"m 86 760 l 313 760 l 313 708 l 179 708 l 179 -80 l 313 -80 l 313 -132 l 86 -132 z"},"6":{"x_min":0,"x_max":636,"ha":636,"o":"m 327 34 q 396 34 433 85 q 470 135 470 230 q 470 325 433 375 q 396 426 327 426 q 257 426 221 377 q 184 328 184 236 q 184 139 221 86 q 258 34 327 34 z m 168 401 q 201 438 243 456 q 285 474 338 474 q 447 474 510 409 q 573 343 573 230 q 573 119 505 52 q 437 -14 323 -14 q 200 -14 133 78 q 67 170 67 341 q 67 532 146 637 q 224 742 367 742 q 406 742 448 735 q 491 728 535 713 l 535 593 l 480 593 q 474 642 442 668 q 411 694 357 694 q 262 694 216 622 q 169 550 168 401 z"},"r":{"x_min":0,"x_max":478,"ha":478,"o":"m 478 520 l 478 390 l 426 390 q 424 429 405 448 q 386 467 349 467 q 283 467 247 421 q 212 375 212 289 l 212 52 l 316 52 l 316 0 l 41 0 l 41 52 l 122 52 l 122 468 l 36 468 l 36 519 l 212 519 l 212 427 q 238 481 280 507 q 321 533 381 533 q 403 533 427 530 q 451 526 478 520 z"},"2":{"x_min":0,"x_max":636,"ha":636,"o":"m 128 555 l 73 555 l 73 685 q 125 713 178 728 q 231 742 282 742 q 396 742 462 687 q 528 632 528 537 q 528 430 378 281 q 367 270 361 264 l 177 80 l 481 80 l 481 170 l 538 170 l 538 0 l 68 0 l 68 53 l 289 274 q 362 347 394 408 q 425 470 425 537 q 425 611 386 652 q 348 694 281 694 q 211 694 173 659 q 135 625 128 555 z"},"{":{"x_min":0,"x_max":636,"ha":636,"o":"m 511 -112 l 511 -163 l 481 -163 q 359 -163 318 -127 q 277 -91 277 17 l 277 143 q 277 216 250 245 q 224 273 155 273 l 125 273 l 125 324 l 155 324 q 224 324 250 353 q 277 381 277 454 l 277 580 q 277 688 318 724 q 359 760 481 760 l 511 760 l 511 709 l 478 709 q 409 709 388 688 q 367 666 367 597 l 367 457 q 367 380 343 347 q 318 313 255 299 q 319 282 343 250 q 367 217 367 140 l 367 0 q 367 -69 388 -90 q 409 -112 478 -112 z"},"9":{"x_min":0,"x_max":636,"ha":636,"o":"m 468 327 q 435 290 393 272 q 350 254 297 254 q 188 254 126 319 q 63 385 63 498 q 63 609 131 676 q 199 742 313 742 q 437 742 503 650 q 569 558 569 387 q 569 196 490 91 q 412 -14 269 -14 q 230 -14 188 -7 q 146 0 101 15 l 101 136 l 156 136 q 162 87 194 61 q 226 34 279 34 q 374 34 420 106 q 466 177 468 327 z m 309 694 q 240 694 203 643 q 166 593 166 498 q 166 403 203 353 q 240 302 309 302 q 378 302 415 351 q 452 400 452 492 q 452 589 415 642 q 378 694 309 694 z"}," ":{"x_min":0,"x_max":318,"ha":318,"o":""},"I":{"x_min":0,"x_max":395,"ha":395,"o":"m 247 52 l 340 52 l 340 0 l 55 0 l 55 52 l 148 52 l 148 677 l 55 677 l 55 729 l 340 729 l 340 677 l 247 677 z"},"H":{"x_min":0,"x_max":872,"ha":872,"o":"m 55 0 l 55 52 l 148 52 l 148 677 l 55 677 l 55 729 l 340 729 l 340 677 l 247 677 l 247 425 l 625 425 l 625 677 l 532 677 l 532 729 l 817 729 l 817 677 l 724 677 l 724 52 l 817 52 l 817 0 l 532 0 l 532 52 l 625 52 l 625 365 l 247 365 l 247 52 l 340 52 l 340 0 z"},"4":{"x_min":0,"x_max":636,"ha":636,"o":"m 349 247 l 349 635 l 100 247 z m 564 0 l 232 0 l 232 52 l 349 52 l 349 195 l 31 195 l 31 248 l 350 742 l 447 742 l 447 247 l 586 247 l 586 195 l 447 195 l 447 52 l 564 52 z"},"~":{"x_min":0,"x_max":838,"ha":838,"o":"m 732 394 l 732 322 q 683 279 639 258 q 595 238 550 238 q 503 238 418 270 l 413 272 q 408 274 397 278 q 325 306 279 306 q 234 306 192 288 q 149 271 106 233 l 106 307 q 155 350 198 369 q 242 389 288 389 q 335 389 420 357 l 425 355 q 430 353 440 349 q 511 321 558 321 q 603 321 646 339 q 689 357 732 394 z"},"D":{"x_min":0,"x_max":802,"ha":802,"o":"m 247 52 l 338 52 q 480 52 556 133 q 632 214 632 365 q 632 517 556 597 q 480 677 338 677 l 247 677 z m 55 0 l 55 52 l 148 52 l 148 677 l 55 677 l 55 729 l 345 729 q 534 729 639 633 q 744 537 744 365 q 744 193 639 97 q 533 0 345 0 z"},"^":{"x_min":0,"x_max":838,"ha":838,"o":"m 467 729 l 732 457 l 657 457 l 419 643 l 181 457 l 106 457 l 371 729 z"},"0":{"x_min":0,"x_max":636,"ha":636,"o":"m 318 34 q 393 34 430 116 q 467 198 467 364 q 467 530 430 612 q 393 694 318 694 q 243 694 206 612 q 169 530 169 364 q 169 198 206 116 q 243 34 318 34 z m 318 -14 q 199 -14 133 85 q 66 185 66 364 q 66 543 133 643 q 199 742 318 742 q 437 742 503 643 q 570 543 570 364 q 570 185 503 85 q 437 -14 318 -14 z"},"F":{"x_min":0,"x_max":694,"ha":694,"o":"m 55 0 l 55 52 l 148 52 l 148 677 l 55 677 l 55 729 l 652 729 l 652 567 l 592 567 l 592 669 l 247 669 l 247 425 l 496 425 l 496 516 l 556 516 l 556 274 l 496 274 l 496 365 l 247 365 l 247 52 l 364 52 l 364 0 z"},"`":{"x_min":0,"x_max":500,"ha":500,"o":"m 179 799 l 306 615 l 249 615 l 83 799 z"},"k":{"x_min":0,"x_max":606,"ha":606,"o":"m 286 0 l 34 0 l 34 52 l 115 52 l 115 708 l 29 708 l 29 760 l 205 760 l 205 265 l 424 467 l 349 467 l 349 519 l 584 519 l 584 467 l 495 467 l 341 324 l 538 52 l 613 52 l 613 0 l 357 0 l 357 52 l 431 52 l 276 265 l 205 199 l 205 52 l 286 52 z"},"u":{"x_min":0,"x_max":644,"ha":644,"o":"m 354 519 l 522 519 l 522 52 l 607 52 l 607 0 l 432 0 l 432 92 q 407 40 368 13 q 328 -14 276 -14 q 189 -14 149 35 q 108 84 108 189 l 108 467 l 27 467 l 27 519 l 198 519 l 198 217 q 198 122 221 87 q 245 52 304 52 q 367 52 399 98 q 432 144 432 231 l 432 467 l 354 467 z"},"]":{"x_min":0,"x_max":390,"ha":390,"o":"m 304 760 l 304 -132 l 77 -132 l 77 -80 l 211 -80 l 211 708 l 77 708 l 77 760 z"},"U":{"x_min":0,"x_max":843,"ha":843,"o":"m 140 677 l 47 677 l 47 729 l 332 729 l 332 677 l 239 677 l 239 300 q 239 160 284 105 q 330 50 442 50 q 554 50 599 105 q 645 160 645 300 l 645 677 l 552 677 l 552 729 l 798 729 l 798 677 l 705 677 l 705 290 q 705 124 641 55 q 577 -14 424 -14 q 271 -14 205 55 q 140 125 140 290 z"},"o":{"x_min":0,"x_max":602,"ha":602,"o":"m 301 34 q 373 34 410 91 q 447 148 447 260 q 447 371 410 428 q 373 485 301 485 q 229 485 192 428 q 155 371 155 260 q 155 148 192 91 q 229 34 301 34 z m 301 -14 q 188 -14 119 61 q 50 136 50 260 q 50 384 118 458 q 187 533 301 533 q 415 533 483 458 q 552 384 552 260 q 552 136 483 61 q 415 -14 301 -14 z"},"N":{"x_min":0,"x_max":875,"ha":875,"o":"m 49 0 l 49 52 l 147 52 l 147 677 l 49 677 l 49 729 l 236 729 l 673 154 l 673 677 l 575 677 l 575 729 l 831 729 l 831 677 l 733 677 l 733 -14 l 674 -14 l 207 600 l 207 52 l 305 52 l 305 0 z"},"+":{"x_min":0,"x_max":838,"ha":838,"o":"m 458 627 l 458 353 l 732 353 l 732 274 l 458 274 l 458 0 l 380 0 l 380 274 l 106 274 l 106 353 l 380 353 l 380 627 z"},"G":{"x_min":0,"x_max":799,"ha":799,"o":"m 640 511 q 623 603 569 646 q 515 690 418 690 q 292 690 230 609 q 168 528 168 364 q 168 203 232 121 q 296 38 420 38 q 475 38 525 52 q 576 65 621 93 l 621 281 l 484 281 l 484 333 l 720 333 l 720 61 q 655 23 580 5 q 505 -14 420 -14 q 255 -14 156 89 q 56 192 56 364 q 56 537 156 639 q 255 742 424 742 q 486 742 553 728 q 620 713 695 684 l 695 511 z"},"q":{"x_min":0,"x_max":640,"ha":640,"o":"m 525 467 l 525 -156 l 611 -156 l 611 -208 l 350 -208 l 350 -156 l 435 -156 l 435 81 q 409 32 368 9 q 327 -14 267 -14 q 171 -14 111 62 q 50 138 50 260 q 50 382 110 458 q 171 533 267 533 q 327 533 368 510 q 409 487 435 438 l 435 519 l 611 519 l 611 467 z m 435 285 q 435 378 399 428 q 363 477 295 477 q 226 477 190 422 q 155 368 155 260 q 155 152 190 97 q 226 42 295 42 q 363 42 399 91 q 435 140 435 234 z"},"d":{"x_min":0,"x_max":640,"ha":640,"o":"m 525 52 l 611 52 l 611 0 l 435 0 l 435 81 q 409 32 368 9 q 327 -14 267 -14 q 171 -14 111 62 q 50 138 50 260 q 50 382 110 458 q 171 533 267 533 q 327 533 368 510 q 409 487 435 438 l 435 708 l 350 708 l 350 760 l 525 760 z m 435 234 l 435 285 q 435 378 399 428 q 363 477 295 477 q 226 477 190 422 q 155 368 155 260 q 155 152 190 97 q 226 42 295 42 q 363 42 399 91 q 435 140 435 234 z"},"1":{"x_min":0,"x_max":636,"ha":636,"o":"m 142 0 l 142 52 l 269 52 l 269 658 l 122 563 l 122 627 l 300 742 l 367 742 l 367 52 l 494 52 l 494 0 z"},"5":{"x_min":0,"x_max":636,"ha":636,"o":"m 503 729 l 503 649 l 169 649 l 169 440 q 194 458 228 466 q 262 475 304 475 q 422 475 491 410 q 559 344 559 231 q 559 115 490 51 q 421 -14 296 -14 q 246 -14 193 -2 q 140 10 85 35 l 85 177 l 140 177 q 145 107 184 71 q 224 34 296 34 q 373 34 415 85 q 456 136 456 231 q 456 326 415 376 q 374 427 296 427 q 252 427 219 411 q 185 396 159 363 l 117 363 l 117 729 z"}}}
